<svg width="48" height="48" viewBox="0 0 48 48" fill="none" xmlns="http://www.w3.org/2000/svg">
<path fill-rule="evenodd" clip-rule="evenodd" d="M24 47.4375C36.9442 47.4375 47.4375 36.9442 47.4375 24C47.4375 11.0558 36.9442 0.5625 24 0.5625C11.0558 0.5625 0.5625 11.0558 0.5625 24C0.5625 36.9442 11.0558 47.4375 24 47.4375ZM15.749 19.7438H20.6156V15.5699C20.6156 10.7298 23.5705 8.09531 27.8881 8.09531C29.3454 8.09014 30.8019 8.1646 32.2511 8.31834V13.3771H29.2737C26.9246 13.3771 26.4697 14.4934 26.4697 16.1317V19.7438H32.0863L31.3545 25.4156H26.4701V39.9047H20.6156V25.4156H15.749V19.7438Z" fill="#231F20"/>
</svg>
