<svg width="48" height="48" viewBox="0 0 48 48" fill="none" xmlns="http://www.w3.org/2000/svg">
<g clip-path="url(#clip0_169_12422)">
<path d="M24 28.9219C26.7183 28.9219 28.9219 26.7183 28.9219 24C28.9219 21.2817 26.7183 19.0781 24 19.0781C21.2817 19.0781 19.0781 21.2817 19.0781 24C19.0781 26.7183 21.2817 28.9219 24 28.9219Z" fill="#231F20"/>
<path d="M24 0.5625C11.0558 0.5625 0.5625 11.0558 0.5625 24C0.5625 36.9442 11.0558 47.4375 24 47.4375C36.9442 47.4375 47.4375 36.9442 47.4375 24C47.4375 11.0558 36.9442 0.5625 24 0.5625ZM38.4804 29.9569C38.3679 32.1851 37.7418 34.3824 36.1179 35.989C34.4783 37.6109 32.2706 38.2152 30.0209 38.3266H17.9792C15.7292 38.2152 13.5217 37.6113 11.8822 35.989C10.2582 34.3824 9.63216 32.1851 9.51966 29.9569V18.0431C9.63216 15.8149 10.2583 13.6176 11.8822 12.0109C13.5217 10.389 15.7295 9.78469 17.9792 9.67341H30.0208C32.2708 9.78469 34.4782 10.3887 36.1178 12.0109C37.7418 13.6176 38.3678 15.8149 38.4803 18.0431L38.4804 29.9569Z" fill="#231F20"/>
<path d="M29.8687 12.3879C26.9357 12.3075 21.0651 12.3075 18.132 12.3879C16.6056 12.4298 14.8753 12.8098 13.7878 13.9714C12.6577 15.1788 12.2307 16.6375 12.1874 18.2694C12.1113 21.1337 12.1874 29.7306 12.1874 29.7306C12.237 31.3623 12.6577 32.8212 13.7878 34.0286C14.8753 35.1906 16.6056 35.5702 18.132 35.6121C21.0651 35.6925 26.9357 35.6925 29.8687 35.6121C31.3951 35.5702 33.1254 35.1902 34.2129 34.0286C35.343 32.8212 35.77 31.3625 35.8133 29.7306V18.2694C35.77 16.6375 35.343 15.1788 34.2129 13.9714C33.1251 12.8094 31.3947 12.4298 29.8687 12.3879ZM24 31.6289C22.4911 31.6289 21.0162 31.1815 19.7616 30.3432C18.507 29.5049 17.5292 28.3135 16.9518 26.9195C16.3744 25.5255 16.2233 23.9915 16.5177 22.5117C16.812 21.0318 17.5386 19.6725 18.6055 18.6055C19.6725 17.5386 21.0318 16.812 22.5117 16.5177C23.9915 16.2233 25.5254 16.3744 26.9194 16.9518C28.3134 17.5292 29.5049 18.507 30.3432 19.7616C31.1815 21.0162 31.6289 22.4911 31.6289 24C31.6289 26.0233 30.8251 27.9638 29.3944 29.3945C27.9637 30.8251 26.0233 31.6289 24 31.6289ZM31.6613 17.9458C31.3596 17.9457 31.0646 17.8562 30.8138 17.6885C30.5629 17.5208 30.3674 17.2825 30.252 17.0037C30.1365 16.7249 30.1064 16.4181 30.1653 16.1221C30.2242 15.8262 30.3696 15.5544 30.583 15.341C30.7964 15.1277 31.0682 14.9824 31.3642 14.9235C31.6601 14.8647 31.9669 14.8949 32.2457 15.0104C32.5245 15.1259 32.7627 15.3215 32.9304 15.5724C33.098 15.8233 33.1875 16.1183 33.1875 16.42C33.1875 16.6204 33.148 16.8189 33.0713 17.004C32.9946 17.1892 32.8822 17.3574 32.7405 17.4991C32.5987 17.6407 32.4305 17.7531 32.2453 17.8298C32.0602 17.9064 31.8617 17.9459 31.6613 17.9458Z" fill="#231F20"/>
</g>
<defs>
<clipPath id="clip0_169_12422">
<rect width="48" height="48" fill="white"/>
</clipPath>
</defs>
</svg>
