<svg width="48" height="48" fill="none" xmlns="http://www.w3.org/2000/svg"><g clip-path="url(#a)" fill="#231F20"><path d="M24 28.922a4.922 4.922 0 1 0 0-9.844 4.922 4.922 0 0 0 0 9.844Z"/><path d="M24 .563C11.056.563.562 11.056.562 24S11.056 47.438 24 47.438c12.944 0 23.438-10.494 23.438-23.438C47.438 11.056 36.944.562 24 .562Zm14.48 29.394c-.112 2.228-.738 4.425-2.362 6.032-1.64 1.622-3.847 2.226-6.097 2.338H17.979c-2.25-.112-4.457-.716-6.097-2.338-1.624-1.607-2.25-3.804-2.362-6.032V18.043c.112-2.228.738-4.425 2.362-6.032 1.64-1.622 3.848-2.226 6.097-2.338h12.042c2.25.112 4.457.716 6.097 2.338 1.624 1.607 2.25 3.804 2.362 6.032v11.914Z"/><path d="M29.869 12.388c-2.933-.08-8.804-.08-11.737 0-1.526.042-3.257.422-4.344 1.583-1.13 1.208-1.557 2.666-1.6 4.298-.077 2.865 0 11.462 0 11.462.049 1.631.47 3.09 1.6 4.298 1.087 1.162 2.818 1.541 4.344 1.583 2.933.08 8.804.08 11.737 0 1.526-.042 3.256-.422 4.344-1.583 1.13-1.208 1.557-2.667 1.6-4.298V18.269c-.043-1.631-.47-3.09-1.6-4.298-1.088-1.162-2.818-1.541-4.344-1.583ZM24 31.628a7.629 7.629 0 1 1 0-15.256 7.629 7.629 0 0 1 0 15.257Zm7.661-13.682a1.526 1.526 0 1 1 .001-3.052 1.526 1.526 0 0 1 0 3.052Z"/></g><defs><clipPath id="a"><path fill="#fff" d="M0 0h48v48H0z"/></clipPath></defs></svg>