<svg width="192" height="60" viewBox="0 0 192 60" fill="none" xmlns="http://www.w3.org/2000/svg">
<g clip-path="url(#clip0_169_12413)">
<path d="M45.335 44.8547C44.5787 44.8479 43.8304 45.0101 43.1451 45.3296C42.4597 45.6491 41.8545 46.1177 41.374 46.7011C38.39 50.4466 39.0501 56.1967 36.5415 57.5156C33.5839 59.1246 26.3483 58.7025 21.9383 58.7025C21.5346 58.7648 21.122 58.7381 20.7297 58.6242C20.3374 58.5103 19.9748 58.3119 19.6673 58.0431C19.1356 57.0877 18.9141 55.9909 19.0336 54.9043V10.7495C18.9818 8.8071 19.2677 6.87047 19.8786 5.0257C20.2797 3.74855 21.0518 2.6193 22.0968 1.78135C23.1351 1.10341 24.3424 0.728833 25.5825 0.699903C25.6644 0.70847 25.7472 0.698712 25.8249 0.671337C25.9025 0.643963 25.9731 0.599658 26.0314 0.541642C26.0546 0.519482 26.073 0.492868 26.0856 0.463403C26.0982 0.433937 26.1047 0.402231 26.1047 0.370192C26.1047 0.338154 26.0982 0.306447 26.0856 0.276982C26.073 0.247517 26.0546 0.220903 26.0314 0.198743C25.9801 0.13051 25.9114 0.0773504 25.8324 0.0448584C25.7534 0.0123664 25.6671 0.00174279 25.5825 0.0141052L24.0773 0.145989H22.4401H21.199L20.1955 0.277874H5.61877H4.66811H3.55902L2.02741 0.145989L0.575016 0.0141052C0.482492 -0.00893877 0.385169 -0.00365369 0.295692 0.0292737C0.206215 0.0622011 0.128721 0.121249 0.073281 0.198743C0.0501157 0.220903 0.0316807 0.247517 0.0190867 0.276982C0.00649259 0.306447 0 0.338154 0 0.370192C0 0.402231 0.00649259 0.433937 0.0190867 0.463403C0.0316807 0.492868 0.0501157 0.519482 0.073281 0.541642C0.137253 0.607456 0.216587 0.65637 0.304161 0.683993C0.391734 0.711617 0.484805 0.717083 0.575016 0.699903C1.72462 0.731951 2.83796 1.10877 3.77027 1.78135C4.73842 2.64579 5.45082 3.75878 5.83003 4.99933C6.41537 6.85803 6.68319 8.80193 6.62224 10.7495V48.9959C6.68572 50.9436 6.41785 52.8879 5.83003 54.746C5.47197 56.0186 4.75734 57.1626 3.77027 58.0431C2.8443 58.7279 1.727 59.1061 0.575016 59.1246C0.490482 59.1122 0.404175 59.1228 0.325176 59.1553C0.246176 59.1878 0.177404 59.241 0.126095 59.3092C0.126095 59.3092 0.126095 59.5202 0.126095 59.6521C0.17747 59.7046 0.239234 59.7457 0.307438 59.773C0.375643 59.8002 0.448789 59.813 0.522201 59.8104C0.971122 59.8104 3.16291 59.8104 3.55902 59.8104H26.005C31.5769 59.8104 44.49 59.995 44.9917 59.995C45.1923 60.0148 45.3943 59.9754 45.5727 59.8816C45.7511 59.7878 45.898 59.6438 45.9952 59.4675C46.1804 58.8796 46.2345 58.2584 46.1536 57.6475C46.1536 54.3504 46.1536 49.7344 46.4177 45.0657L45.335 44.8547Z" fill="#231F20"/>
<path d="M117.981 58.1757C116.953 57.4576 116.059 56.5648 115.34 55.5381C114.123 53.8446 113.004 52.0833 111.987 50.2627L104.065 37.4172L109.848 28.5282C113.36 23.1209 116.608 19.6392 112.753 19.6128H107.682H105.86H104.514H103.378C103.302 19.6097 103.226 19.6248 103.157 19.657C103.089 19.6891 103.028 19.7373 102.982 19.7975C102.85 19.7975 102.85 20.0349 102.982 20.1667C103.022 20.2367 103.08 20.2952 103.149 20.3367C103.218 20.3783 103.297 20.4015 103.378 20.4041C105.253 20.4041 112.145 23.754 108.924 28.6865L103.642 36.8369L97.41 26.9192C93.3961 19.8766 91.0987 19.9294 86.8472 19.8766H80.1134H78.7402H77.7103H76.8389C76.654 19.8766 76.5484 19.8766 76.4956 20.0612C76.4694 20.1193 76.4558 20.1822 76.4558 20.2459C76.4558 20.3095 76.4694 20.3725 76.4956 20.4305C76.5143 20.5049 76.5594 20.57 76.6226 20.6137C76.6857 20.6573 76.7626 20.6766 76.8389 20.6679C77.7803 20.6762 78.6985 20.9606 79.4796 21.4856C80.4071 22.1149 81.2349 22.8796 81.9355 23.754C82.7277 24.8618 83.8368 26.6027 85.2892 29.0294C85.2892 29.0294 88.3524 34.0146 91.6797 39.3691L84.1801 50.8694C80.6679 56.2766 77.4463 59.7584 81.2753 59.7847H86.3454H88.1675H89.5143H90.6498C90.7258 59.7879 90.8014 59.7727 90.8704 59.7406C90.9393 59.7085 90.9995 59.6603 91.0459 59.6001C91.1868 59.4946 91.1868 59.3627 91.0459 59.2044C91.0008 59.141 90.9416 59.0888 90.8728 59.0522C90.804 59.0156 90.7277 58.9955 90.6498 58.9934C88.7749 58.9934 81.8827 55.6699 85.1043 50.7375L92.155 39.9757C95.8784 46.016 99.7602 52.2673 99.8395 52.4256C104.461 60.3386 107.762 59.31 115.895 59.521C116.291 59.521 116.978 59.521 117.479 59.521H118.905H120.041H121.071C121.149 59.5316 121.228 59.5227 121.302 59.4951C121.376 59.4675 121.441 59.422 121.493 59.3627C121.519 59.3092 121.532 59.2506 121.532 59.1913C121.532 59.1319 121.519 59.0733 121.493 59.0198C121.446 58.9537 121.382 58.9017 121.308 58.8692C121.233 58.8366 121.151 58.8249 121.071 58.8352C120 58.9019 118.931 58.6738 117.981 58.1757Z" fill="#231F20"/>
<path d="M164.325 58.1757C163.297 57.4576 162.403 56.5648 161.684 55.5381C160.477 53.8381 159.357 52.0773 158.331 50.2627L150.408 37.4172L156.218 28.5282C159.704 23.1209 162.952 19.6392 159.096 19.6128H154.026H152.204H150.857H149.722C149.646 19.6097 149.57 19.6248 149.501 19.657C149.432 19.6891 149.372 19.7373 149.326 19.7975C149.326 19.7975 149.326 20.0349 149.326 20.1667C149.366 20.2367 149.424 20.2952 149.493 20.3367C149.562 20.3783 149.641 20.4015 149.722 20.4041C151.597 20.4041 158.515 23.754 155.267 28.6865L149.986 36.8369L143.754 26.9192C139.766 19.8766 137.443 19.9294 133.191 19.8766H126.457H125.084H124.054H123.183C123.113 19.869 123.044 19.8825 122.982 19.9155C122.921 19.9485 122.871 19.9993 122.839 20.0612C122.813 20.1193 122.8 20.1822 122.8 20.2459C122.8 20.3095 122.813 20.3725 122.839 20.4305C122.863 20.5023 122.909 20.5644 122.971 20.6073C123.033 20.6502 123.107 20.6715 123.183 20.6679C124.17 20.6427 125.14 20.9288 125.955 21.4856C126.878 22.1752 127.688 23.0026 128.359 23.9386C129.151 25.0465 130.26 26.7873 131.712 29.214C131.712 29.214 134.775 34.1992 138.103 39.5537L130.603 51.054C127.117 56.4613 123.869 59.943 127.698 59.9694H132.768H134.591H135.964H137.073C137.152 59.9707 137.231 59.9549 137.304 59.923C137.377 59.8911 137.442 59.844 137.495 59.7847C137.495 59.7847 137.495 59.5473 137.495 59.3891C137.443 59.3275 137.378 59.2771 137.305 59.2409C137.233 59.2046 137.154 59.1833 137.073 59.1781C135.198 59.1781 128.306 55.8546 131.527 50.9221L138.578 40.1604C142.301 46.2007 146.183 52.452 146.263 52.6102C150.884 60.5233 154.185 59.4946 162.318 59.7056C162.714 59.7056 163.401 59.7056 163.902 59.7056H165.46H166.596H167.626C167.837 59.7056 167.996 59.7056 168.048 59.5473C168.074 59.4938 168.087 59.4352 168.087 59.3759C168.087 59.3165 168.074 59.2579 168.048 59.2044C168.048 59.0726 167.837 59.0198 167.626 59.0198C166.466 59.0711 165.317 58.7773 164.325 58.1757Z" fill="#231F20"/>
<path d="M73.1149 59.072C71.9864 59.2447 70.8321 59.0603 69.814 58.5444C69.4159 58.3049 69.0734 57.9834 68.8094 57.6013C68.5453 57.2193 68.3656 56.7855 68.2824 56.3288C68.0975 55.5639 67.9919 51.9502 67.9391 49.2598V33.7502C67.9391 31.1125 68.0975 28.4749 68.1239 26.5757C68.0728 24.4737 68.2232 22.3715 68.5729 20.298C68.9972 18.4852 69.5987 16.7182 70.3686 15.0227C71.8738 10.354 71.953 6.2392 67.7278 2.30905C66.222 1.13317 64.3576 0.509312 62.4464 0.541804C60.4236 0.444561 58.4206 0.979294 56.7161 2.07166C56.0116 2.50919 55.4107 3.09428 54.9547 3.7865C54.4988 4.47872 54.1988 5.26156 54.0754 6.08094C53.9669 6.80518 54.0431 7.54505 54.297 8.23205C54.5509 8.91904 54.9742 9.53094 55.5278 10.0111C56.875 11.1835 58.6295 11.7802 60.4131 11.6728C62.4323 11.72 64.4162 11.1393 66.0906 10.0111C66.7908 9.57503 67.389 8.9937 67.8446 8.30651C68.3003 7.61932 68.6026 6.84232 68.7313 6.02818C68.7702 5.69521 68.7702 5.35884 68.7313 5.02586C69.727 6.36215 70.3267 7.951 70.4621 9.61126C70.5975 11.2715 70.2631 12.9364 69.4971 14.416C68.7423 16.3465 67.5734 18.0884 66.0724 19.5192C64.5715 20.9501 62.775 22.0352 60.8092 22.6983C57.7064 23.8828 54.413 24.4906 51.0914 24.492C51.0365 24.4906 50.9829 24.5082 50.9395 24.5419C50.8962 24.5755 50.8659 24.6231 50.8537 24.6766C50.8216 24.7182 50.8042 24.7692 50.8042 24.8217C50.8042 24.8742 50.8216 24.9252 50.8537 24.9667C50.9729 25.0112 51.1042 25.0112 51.2234 24.9667C52.3207 24.7518 53.458 24.8904 54.4715 25.3624C54.8666 25.5991 55.2073 25.9165 55.4712 26.2938C55.7351 26.671 55.9164 27.0997 56.0031 27.5517C56.2168 28.7265 56.3229 29.9184 56.32 31.1125V45.2769C56.32 46.5957 56.32 49.8401 56.32 52.8734C56.2465 53.7478 56.3621 54.6278 56.659 55.4537C56.9559 56.2795 57.4272 57.0319 58.0408 57.6599C58.6544 58.2878 59.3961 58.7766 60.2155 59.093C61.0348 59.4095 61.9128 59.5462 62.7897 59.494C67.0677 59.494 72.0586 59.494 73.3526 59.705C73.4168 59.6925 73.477 59.6643 73.5277 59.6229C73.5784 59.5814 73.618 59.5281 73.643 59.4676C73.6754 59.4067 73.6923 59.3388 73.6923 59.2698C73.6923 59.2008 73.6754 59.1329 73.643 59.072C73.5627 59.0257 73.4717 59.0013 73.379 59.0013C73.2863 59.0013 73.1952 59.0257 73.1149 59.072Z" fill="#231F20"/>
<path d="M191.841 59.204C191.739 59.1142 191.607 59.067 191.471 59.0721C190.343 59.2449 189.189 59.0604 188.171 58.5446C187.773 58.305 187.43 57.9835 187.166 57.6015C186.902 57.2194 186.722 56.7856 186.639 56.3289C186.454 55.564 186.348 51.9503 186.296 49.2599V33.7503C186.296 31.1127 186.454 28.475 186.481 26.5758C186.429 24.4738 186.58 22.3716 186.929 20.2982C187.354 18.4853 187.955 16.7183 188.725 15.0228C190.204 10.3013 190.204 6.18656 185.979 2.25641C184.473 1.08052 182.609 0.456669 180.697 0.489162C178.675 0.391918 176.672 0.926651 174.967 2.01902C174.263 2.45655 173.662 3.04164 173.206 3.73386C172.75 4.42608 172.45 5.20892 172.326 6.0283C172.202 6.75625 172.266 7.5038 172.51 8.20057C172.755 8.89735 173.174 9.52043 173.726 10.0112C175.073 11.1836 176.828 11.7803 178.611 11.6729C180.657 11.7368 182.671 11.1553 184.368 10.0112C185.065 9.57126 185.66 8.98886 186.116 8.30235C186.571 7.61585 186.875 6.84081 187.009 6.0283C187.048 5.69532 187.048 5.35895 187.009 5.02598C188.004 6.36226 188.604 7.95112 188.739 9.61138C188.875 11.2716 188.541 12.9365 187.774 14.4161C187.025 16.3412 185.864 18.0796 184.373 19.5101C182.881 20.9407 181.095 22.0288 179.139 22.6984C176.037 23.8829 172.743 24.4907 169.422 24.4921C169.367 24.4907 169.313 24.5083 169.27 24.542C169.226 24.5757 169.196 24.6233 169.184 24.6767C169.147 24.7159 169.126 24.7678 169.126 24.8218C169.126 24.8757 169.147 24.9277 169.184 24.9669C169.303 25.0113 169.434 25.0113 169.554 24.9669C170.642 24.7406 171.774 24.8796 172.775 25.3625C173.177 25.591 173.523 25.906 173.788 26.2847C174.053 26.6634 174.23 27.0962 174.307 27.5518C174.545 28.7236 174.66 29.917 174.65 31.1127V45.277C174.65 46.5959 174.65 49.8402 174.65 52.8735C174.577 53.748 174.692 54.6279 174.989 55.4538C175.286 56.2796 175.757 57.032 176.371 57.66C176.985 58.2879 177.726 58.7767 178.546 59.0932C179.365 59.4096 180.243 59.5464 181.12 59.4941C185.371 59.4941 190.389 59.4941 191.683 59.7051C191.752 59.6968 191.817 59.6705 191.873 59.6288C191.929 59.5872 191.972 59.5316 192 59.4677C191.982 59.363 191.925 59.2689 191.841 59.204Z" fill="#231F20"/>
</g>
<defs>
<clipPath id="clip0_169_12413">
<rect width="192" height="60" fill="white"/>
</clipPath>
</defs>
</svg>
