<svg width="192" height="60" fill="none" xmlns="http://www.w3.org/2000/svg"><g clip-path="url(#a)" fill="#231F20"><path d="M45.335 44.855a5.075 5.075 0 0 0-3.961 1.846c-2.984 3.746-2.324 9.496-4.833 10.815-2.957 1.609-10.193 1.187-14.603 1.187a2.802 2.802 0 0 1-2.27-.66 5.27 5.27 0 0 1-.634-3.139V10.75a16.784 16.784 0 0 1 .845-5.723 6.752 6.752 0 0 1 2.218-3.245A6.66 6.66 0 0 1 25.582.7a.556.556 0 0 0 .45-.158.237.237 0 0 0 0-.343.475.475 0 0 0-.45-.185l-1.505.132H21.2l-1.004.132H3.56L2.027.146.575.014A.476.476 0 0 0 .073.2a.237.237 0 0 0 0 .343A.555.555 0 0 0 .575.7 5.735 5.735 0 0 1 3.77 1.78 7.094 7.094 0 0 1 5.83 5c.585 1.859.853 3.803.792 5.75v38.247a17.205 17.205 0 0 1-.792 5.75 6.936 6.936 0 0 1-2.06 3.297 5.523 5.523 0 0 1-3.195 1.082.475.475 0 0 0-.449.184v.343a.528.528 0 0 0 .396.158h25.483c5.572 0 18.485.185 18.987.185a1.03 1.03 0 0 0 1.003-.527c.185-.588.24-1.21.159-1.82 0-3.298 0-7.914.264-12.582l-1.083-.211ZM117.981 58.176a10.716 10.716 0 0 1-2.641-2.638 55.006 55.006 0 0 1-3.353-5.275l-7.922-12.846 5.783-8.889c3.512-5.407 6.76-8.889 2.905-8.915h-9.375a.477.477 0 0 0-.396.184c-.132 0-.132.238 0 .37a.473.473 0 0 0 .396.237c1.875 0 8.767 3.35 5.546 8.282l-5.282 8.15-6.232-9.917c-4.014-7.042-6.311-6.99-10.563-7.042H76.84c-.185 0-.29 0-.343.184a.45.45 0 0 0 0 .37.317.317 0 0 0 .343.237 4.81 4.81 0 0 1 2.64.818c.928.629 1.756 1.394 2.457 2.268.792 1.108 1.9 2.849 3.353 5.275 0 0 3.063 4.986 6.39 10.34l-7.499 11.5c-3.512 5.408-6.734 8.89-2.905 8.916h9.375a.476.476 0 0 0 .396-.185c.14-.105.14-.237 0-.396a.502.502 0 0 0-.396-.21c-1.875 0-8.767-3.324-5.546-8.257l7.051-10.761c3.723 6.04 7.605 12.291 7.684 12.45 4.622 7.913 7.923 6.884 16.056 7.095h5.176a.476.476 0 0 0 .422-.158.392.392 0 0 0 0-.343.448.448 0 0 0-.422-.185 5.87 5.87 0 0 1-3.09-.66ZM164.325 58.176a10.716 10.716 0 0 1-2.641-2.638 60.836 60.836 0 0 1-3.353-5.275l-7.923-12.846 5.81-8.889c3.486-5.407 6.734-8.889 2.878-8.915h-9.374a.477.477 0 0 0-.396.184v.37a.473.473 0 0 0 .396.237c1.875 0 8.793 3.35 5.545 8.282l-5.281 8.15-6.232-9.917c-3.988-7.042-6.311-6.99-10.563-7.042h-10.008a.345.345 0 0 0-.344.184.452.452 0 0 0 0 .37.349.349 0 0 0 .344.237 4.701 4.701 0 0 1 2.772.818c.923.69 1.733 1.517 2.404 2.453.792 1.108 1.901 2.848 3.353 5.275 0 0 3.063 4.985 6.391 10.34l-7.5 11.5c-3.486 5.407-6.734 8.889-2.905 8.915h9.375a.555.555 0 0 0 .422-.184v-.396a.594.594 0 0 0-.422-.21c-1.875 0-8.767-3.324-5.546-8.257l7.051-10.762c3.723 6.04 7.605 12.292 7.685 12.45 4.621 7.913 7.922 6.885 16.055 7.096H167.626c.211 0 .37 0 .422-.159a.392.392 0 0 0 0-.343c0-.131-.211-.184-.422-.184a5.866 5.866 0 0 1-3.301-.844ZM73.115 59.072a5.472 5.472 0 0 1-3.301-.528 3.27 3.27 0 0 1-1.532-2.215c-.184-.765-.29-4.379-.343-7.07V33.75c0-2.637.159-5.275.185-7.174-.051-2.102.1-4.204.449-6.278a28.43 28.43 0 0 1 1.796-5.275c1.505-4.669 1.584-8.784-2.641-12.714A8.35 8.35 0 0 0 62.446.542a9.753 9.753 0 0 0-5.73 1.53 5.728 5.728 0 0 0-2.64 4.009 4.347 4.347 0 0 0 1.452 3.93 6.818 6.818 0 0 0 4.885 1.662 9.753 9.753 0 0 0 5.678-1.662 5.754 5.754 0 0 0 2.64-3.983c.04-.333.04-.67 0-1.002a8.883 8.883 0 0 1 .766 9.39 14.188 14.188 0 0 1-8.688 8.282 27.28 27.28 0 0 1-9.718 1.794.238.238 0 0 0-.237.185.237.237 0 0 0 0 .29c.119.044.25.044.37 0a5.287 5.287 0 0 1 3.248.395 3.272 3.272 0 0 1 1.531 2.19 19.63 19.63 0 0 1 .317 3.56v21.761a6.114 6.114 0 0 0 3.895 6.22c.82.316 1.698.453 2.575.401 4.278 0 9.269 0 10.563.211a.397.397 0 0 0 .29-.237.421.421 0 0 0 0-.396.528.528 0 0 0-.528 0ZM191.841 59.204a.53.53 0 0 0-.37-.132 5.47 5.47 0 0 1-3.3-.527 3.275 3.275 0 0 1-1.532-2.216c-.185-.765-.291-4.379-.343-7.07V33.75c0-2.637.158-5.275.185-7.174a32.917 32.917 0 0 1 .448-6.278 28.474 28.474 0 0 1 1.796-5.275c1.479-4.722 1.479-8.836-2.746-12.767A8.351 8.351 0 0 0 180.697.49a9.754 9.754 0 0 0-5.73 1.53 5.732 5.732 0 0 0-2.641 4.01 4.359 4.359 0 0 0 .184 2.172c.245.696.664 1.32 1.216 1.81a6.818 6.818 0 0 0 4.885 1.662 9.754 9.754 0 0 0 5.757-1.662 5.834 5.834 0 0 0 2.641-3.983c.039-.333.039-.669 0-1.002a8.884 8.884 0 0 1 .765 9.39 14.19 14.19 0 0 1-8.635 8.282 27.275 27.275 0 0 1-9.717 1.794.237.237 0 0 0-.238.185.212.212 0 0 0 0 .29.53.53 0 0 0 .37 0 5.047 5.047 0 0 1 3.221.396 3.115 3.115 0 0 1 1.532 2.189c.238 1.172.353 2.365.343 3.56v21.761a6.12 6.12 0 0 0 6.47 6.621c4.251 0 9.269 0 10.563.211a.397.397 0 0 0 .317-.237.425.425 0 0 0-.159-.264Z"/></g><defs><clipPath id="a"><path fill="#fff" d="M0 0h192v60H0z"/></clipPath></defs></svg>